<svg width="2500" height="1691" viewBox="0 0 2500 1691" fill="none" xmlns="http://www.w3.org/2000/svg">
<g clip-path="url(#clip0)">
<path d="M2308.45 1689.51C2191.53 1689.51 2122.19 1629.67 2116.88 1543.5H2228.67C2228.67 1572.23 2244.59 1610.46 2313.75 1612.84C2361.69 1612.84 2388.21 1584.12 2388.21 1562.53C2382.91 1529.05 2340.28 1526.67 2297.83 1519.35C2249.89 1512.4 2212.75 1502.7 2186.04 1490.81C2148.9 1471.6 2127.49 1430.8 2127.49 1387.81C2127.49 1311.14 2191.53 1251.31 2303.14 1251.31C2409.62 1251.31 2478.78 1306.39 2483.9 1390.18H2377.61C2377.61 1368.77 2372.3 1332.73 2308.44 1332.73C2265.81 1332.73 2239.29 1339.87 2233.98 1370.97C2233.98 1414.15 2324.36 1411.77 2393.52 1428.42C2457.37 1445.25 2500 1485.87 2500 1543.5C2500 1648.89 2414.92 1689.51 2308.45 1689.51V1689.51ZM271.348 982.449L638.373 769.294L835.236 1107.05H340.508" fill="#26231E"/>
<path d="M1043.14 1676.8V1250.5Z" fill="#26231E"/>
<path d="M1043.14 1676.8V1250.5" stroke="#26231E" stroke-width="107.399"/>
<path d="M101.002 1469.95C101.002 1536.91 159.545 1591.99 223.214 1591.99C292.557 1591.99 345.616 1536.91 345.616 1469.95C345.616 1405.37 292.557 1347.92 223.214 1347.92C159.545 1347.92 101.002 1405.37 101.002 1469.95V1469.95ZM217.913 1690.24C100.994 1690.24 0 1591.99 0 1469.95C0 1347.92 101.002 1252.05 217.913 1252.05C265.848 1252.05 308.474 1264.12 345.616 1290.28V1256.8H452.102V1680.54H345.625V1654.2C313.791 1678.17 265.856 1690.24 217.922 1690.24H217.913ZM1638.49 1106.95L1127.84 216.289L1494.86 0.759277L2133.22 1106.95H1638.49ZM590.422 1469.95C590.422 1536.91 643.673 1591.99 712.825 1591.99C776.493 1591.99 835.228 1536.91 835.228 1469.95C835.228 1405.37 776.493 1347.92 712.825 1347.92C643.665 1347.92 590.422 1405.37 590.422 1469.95ZM707.517 1690.24C585.114 1690.24 489.428 1591.99 489.428 1469.95C489.428 1347.92 585.114 1252.05 707.517 1252.05C755.268 1252.05 797.902 1264.12 835.228 1290.28V1110.79H941.53V1680.54H835.219V1654.2C797.894 1678.17 755.268 1690.24 707.508 1690.24H707.517ZM702.275 601.765L1074.6 391.177L1484.26 1106.93H1095.83V1212.31H989.523V1106.93L702.275 601.765ZM2431.02 1215.63C2404.31 1215.63 2377.79 1191.66 2377.79 1162.94C2377.79 1134.21 2404.31 1110.24 2431.02 1110.24C2462.86 1110.24 2484.27 1134.22 2484.27 1162.94C2484.27 1191.65 2462.86 1215.64 2431.02 1215.64V1215.63ZM2431.02 1117.57C2404.31 1117.57 2388.4 1138.97 2388.4 1162.94C2388.4 1186.9 2404.31 1208.5 2431.02 1208.5C2457.56 1208.5 2473.47 1186.91 2473.47 1162.94C2473.47 1138.96 2457.56 1117.57 2431.02 1117.57Z" fill="#26231E"/>
<path d="M2442.01 1191.85L2431.39 1167.88H2420.78V1191.85H2412.73V1134.39H2436.7C2442.01 1134.39 2452.62 1141.72 2452.62 1151.23C2452.62 1160.74 2447.31 1165.5 2442.01 1167.88L2452.62 1191.85H2442.01ZM2431.39 1141.72H2420.78V1160.75H2431.39C2442.01 1160.75 2442.01 1158.37 2442.01 1151.23C2442.01 1146.29 2442.01 1141.72 2431.39 1141.72ZM1728.45 1469.95C1728.45 1536.91 1781.7 1591.99 1850.85 1591.99C1914.7 1591.99 1973.07 1536.91 1973.07 1469.95C1973.07 1405.37 1914.7 1347.92 1850.85 1347.92C1781.69 1347.92 1728.45 1405.37 1728.45 1469.95ZM1845.37 1690.24C1723.15 1690.24 1627.45 1591.99 1627.45 1469.95C1627.45 1347.92 1723.15 1252.05 1845.36 1252.05C1893.3 1252.05 1935.93 1264.12 1973.07 1290.28V1256.8H2074.25V1680.54H1973.08V1654.2C1935.93 1678.17 1893.3 1690.24 1845.36 1690.24H1845.37ZM1239.4 1469.95C1239.4 1536.91 1297.94 1591.99 1361.79 1591.99C1430.96 1591.99 1484.19 1536.91 1484.19 1469.95C1484.19 1405.37 1430.95 1347.92 1361.79 1347.92C1297.94 1347.92 1239.4 1405.37 1239.4 1469.95ZM1484.19 1110.79H1590.5V1680.54H1484.19V1654.2C1452.18 1678.17 1409.55 1690.24 1361.79 1690.24C1239.4 1690.24 1138.39 1591.99 1138.39 1469.95C1138.39 1347.92 1239.4 1252.05 1361.79 1252.05C1409.54 1252.05 1452.18 1264.12 1484.19 1290.28V1110.79Z" fill="#26231E"/>
</g>
<defs>
<clipPath id="clip0">
<rect width="2500" height="1691" fill="white"/>
</clipPath>
</defs>
</svg>
