<svg width="2427" height="1124" viewBox="0 0 2427 1124" fill="none" xmlns="http://www.w3.org/2000/svg">
<path fill-rule="evenodd" clip-rule="evenodd" d="M1005.01 514.394L726.034 524.329L990.929 539.049L1005.01 514.394V514.394ZM971.643 573.017L692.002 582.965L957.882 597.738L971.643 573.017V573.017ZM938.272 632.133L658.981 641.938L924.537 656.698L938.272 632.133ZM905.588 690.951L625.947 700.912L891.191 715.646L905.588 690.951ZM1247.43 218.489L891.36 231.16L1248.44 251.004L1247.43 218.489ZM1245.18 160.306L925.302 171.525L1246.19 189.929L1245.18 160.306V160.306ZM1242.89 104.186L957.895 113.563L1244.27 129.464L1242.89 104.186ZM1240.97 46.5744L991.162 54.9269L1241.96 69.7384L1240.97 46.5744V46.5744ZM1239.35 0H1022.08L1239.68 11.5431L1239.35 0V0ZM871.892 749.743L592.926 759.847H866.199L871.892 749.743Z" fill="#26231E"/>
<path fill-rule="evenodd" clip-rule="evenodd" d="M1817.31 1.88086H1415.27L1403.87 22.0618L1605.06 32.7359C1607.42 32.7359 1607.42 36.0821 1604.05 36.0821L1392.15 43.1636L1371.71 78.9342L1571.52 90.7367C1574.21 91.0739 1573.54 94.7573 1571.2 94.7573L1358.95 101.735L1339.19 135.988L1538.68 147.064C1543.04 147.402 1543.04 151.098 1538.68 151.098L1326.78 158.53L1306.66 194.352L1505.49 205.753C1509.85 206.09 1509.53 210.11 1505.49 210.11L1293.59 217.659L1273.13 253.04L1472.28 264.103C1475.28 264.441 1475.65 268.137 1471.61 268.137L861.037 288.59L1440.43 320.781C1444.11 320.781 1443.78 325.476 1439.75 325.476L828.184 347.279L1407.58 379.457C1410.27 379.457 1410.93 383.814 1406.9 383.814L794.32 405.941L1373.72 438.132C1376.08 438.469 1378.4 442.827 1373.39 443.164L761.792 464.927L1341.18 497.105C1342.85 497.443 1344.52 501.8 1340.52 501.8L1032.7 512.773L1033.72 540.554L1307.99 555.794C1309.99 556.131 1311 560.151 1307.3 560.151L1034.73 569.84L1036.06 600.915L1274.14 614.145C1276.47 614.482 1277.48 619.177 1273.45 619.177L1037.4 627.465L1038.42 661.562L1241.28 672.833C1243.62 673.157 1244.29 677.515 1240.27 677.515L1039.44 684.687L1040.77 722.196L1208.42 731.508C1210.78 731.845 1210.78 735.879 1207.42 735.879L1041.45 741.884L1042.12 758.005H1583.3C1726.79 758.005 1855.53 653.391 1879.68 570.229C1903.84 487.08 1903.84 411.972 1788.49 374.424C1852.89 359.665 1964.85 287.047 1986.99 186.648C2007.07 95.4317 1973.56 2.21807 1817.31 1.88086ZM1545.1 584.223H1378.8L1472.68 417.912H1596.07C1723.49 417.912 1661.78 584.223 1545.1 584.223V584.223ZM1760.35 227.438C1754.98 247.554 1714.72 298.525 1663.79 298.525H1540.39L1619.51 159.048H1682.55C1763.01 161.733 1765.69 207.335 1760.35 227.438V227.438ZM2426.49 998.996C2426.49 934.55 2372.91 880.569 2308.46 880.569C2242.34 880.569 2188.36 935.406 2188.36 1002.77C2188.3 1018.62 2191.37 1034.32 2197.4 1048.97C2203.43 1063.62 2212.31 1076.94 2223.52 1088.14C2234.72 1099.35 2248.04 1108.22 2262.69 1114.25C2277.34 1120.28 2293.04 1123.35 2308.89 1123.29C2357.83 1123.29 2404.28 1089.81 2418.1 1044.2H2357C2344.86 1063.44 2328.98 1072.22 2307.19 1072.22C2279.58 1072.22 2254.91 1053.39 2246.95 1026.61H2423.53C2425.64 1013.65 2426.49 1007.36 2426.49 998.996ZM2245.29 982.862C2253.24 951.475 2278.35 931.385 2309.31 931.385C2340.29 931.385 2364.56 951.06 2372.08 982.862H2245.29ZM1633.18 891.736V910.53C1615.62 891.697 1590.17 880.984 1562.96 880.984C1502.7 880.984 1451.33 932.448 1451.33 999.411C1451.33 1062.59 1496.78 1119.25 1564.15 1119.25C1593.87 1119.25 1616.46 1112.39 1637.8 1088.12V1117.84H1688.87V891.736H1633.18V891.736ZM1570.81 1071.33C1552.2 1071.33 1534.35 1063.94 1521.19 1050.78C1508.03 1037.62 1500.63 1019.77 1500.63 1001.16C1500.63 982.545 1508.03 964.696 1521.19 951.536C1534.35 938.376 1552.2 930.983 1570.81 930.983C1589.42 930.983 1607.27 938.376 1620.43 951.536C1633.59 964.696 1640.98 982.545 1640.98 1001.16C1640.98 1019.77 1633.59 1037.62 1620.43 1050.78C1607.27 1063.94 1589.42 1071.33 1570.81 1071.33V1071.33ZM111.319 880.556C88.3111 880.556 70.7371 888.507 51.477 908.182V886.004H0V1117.84H55.6662V1008.61C55.6662 978.906 58.1694 931.605 99.1798 931.605C137.674 931.605 141.863 975.962 141.863 1004.42V1117.83H197.517V993.536C197.517 960.891 195.013 945.418 186.22 927.001C173.25 899.389 142.706 880.556 111.319 880.556V880.556ZM457.145 998.996C457.145 934.55 403.58 880.569 339.133 880.569C273.014 880.569 219.033 935.406 219.033 1002.77C218.968 1018.62 222.041 1034.32 228.074 1048.97C234.108 1063.62 242.982 1076.93 254.186 1088.13C265.39 1099.34 278.701 1108.21 293.352 1114.24C308.003 1120.28 323.704 1123.35 339.548 1123.29C388.509 1123.29 434.954 1089.81 448.767 1044.2H387.679C375.54 1063.44 359.639 1072.22 337.875 1072.22C310.263 1072.22 285.568 1053.39 277.618 1026.61H454.201C456.315 1013.65 457.145 1007.36 457.145 998.996V998.996ZM275.958 982.862C283.908 951.475 309.018 931.385 339.989 931.385C370.961 931.385 395.228 951.06 402.763 982.862H275.958ZM1372.88 1117.64H1428.53V808.393H1372.88V1117.64ZM1835.7 880.556C1812.68 880.556 1795.09 888.507 1775.85 908.182V886.004H1724.37V1117.84H1780.05V1008.61C1780.05 978.906 1782.55 931.605 1823.56 931.605C1862.04 931.605 1866.25 975.962 1866.25 1004.42V1117.83H1921.9V993.536C1921.9 960.891 1919.4 945.418 1910.6 927.001C1897.63 899.389 1867.09 880.556 1835.7 880.556V880.556ZM2060.83 931.618C2086.34 931.618 2100.99 939.997 2114.81 963.42H2177.56C2160.41 913.629 2116.48 880.556 2062.91 880.556C1995.11 880.556 1940.7 934.537 1940.7 1001.08C1940.7 1068.03 1995.53 1123.27 2062.91 1123.27C2080.09 1123.18 2097.07 1119.53 2112.77 1112.54C2128.47 1105.55 2142.55 1095.38 2154.12 1082.68C2165.85 1069.71 2170.04 1062.17 2177.56 1041.68H2114.81C2101.82 1061.76 2085.1 1072.21 2064.18 1072.21C2025.24 1072.21 1996.38 1042.08 1996.38 1001.9C1996.38 961.332 2024 931.618 2060.83 931.618V931.618ZM669.875 1027.45L630.46 886.017H585.676L545.833 1027.45L498.713 886.017H449.61L527.013 1117.84H562.667L607.867 967.622L651.796 1117.84H689.213L763.439 886.017H717.423L669.875 1027.45V1027.45ZM968.063 880.803C940.866 880.803 915.419 891.516 897.845 910.335V808.406H842.179V1117.64H893.228V1087.94C914.576 1112.21 937.169 1119.06 966.883 1119.06C1034.26 1119.06 1079.71 1062.41 1079.71 999.217C1079.72 932.267 1028.33 880.803 968.063 880.803V880.803ZM960.217 1071.33C941.606 1071.33 923.757 1063.94 910.597 1050.78C897.437 1037.62 890.044 1019.77 890.044 1001.16C890.044 982.545 897.437 964.696 910.597 951.536C923.757 938.376 941.606 930.983 960.217 930.983C978.828 930.983 996.676 938.376 1009.84 951.536C1023 964.696 1030.39 982.545 1030.39 1001.16C1030.39 1019.77 1023 1037.62 1009.84 1050.78C996.676 1063.94 978.828 1071.33 960.217 1071.33V1071.33ZM1280.02 891.736V910.53C1262.45 891.697 1237.02 880.984 1209.81 880.984C1149.55 880.984 1098.15 932.448 1098.15 999.411C1098.15 1062.59 1143.61 1119.25 1210.97 1119.25C1240.69 1119.25 1263.28 1112.39 1284.63 1088.12V1117.84H1335.68V891.736H1280.02V891.736ZM1217.67 1071.33C1199.06 1071.33 1181.21 1063.94 1168.05 1050.78C1154.89 1037.62 1147.49 1019.77 1147.49 1001.16C1147.49 982.545 1154.89 964.696 1168.05 951.536C1181.21 938.376 1199.06 930.983 1217.67 930.983C1236.28 930.983 1254.13 938.376 1267.29 951.536C1280.45 964.696 1287.84 982.545 1287.84 1001.16C1287.84 1019.77 1280.45 1037.62 1267.29 1050.78C1254.13 1063.94 1236.28 1071.33 1217.67 1071.33V1071.33Z" fill="#26231E"/>
</svg>
