<svg width="2427" height="1131" viewBox="0 0 2427 1131" fill="none" xmlns="http://www.w3.org/2000/svg">
<path fill-rule="evenodd" clip-rule="evenodd" d="M1955.37 853.721C1919.94 828.923 1873.91 814.734 1817.19 814.734C1764.07 814.734 1718.03 828.923 1679.09 853.721C1640.1 885.562 1618.85 924.575 1618.85 974.146C1618.85 1023.74 1640.1 1059.16 1679.09 1091.03C1718.03 1115.83 1764.08 1130.02 1817.19 1130.02C1873.91 1130.02 1919.94 1115.83 1955.37 1091.03C1997.88 1059.16 2015.59 1023.74 2015.59 974.146C2015.58 924.575 1997.88 885.562 1955.37 853.721V853.721ZM1817.18 903.292C1842 903.292 1859.71 910.386 1877.43 920.996C1891.61 935.184 1902.22 949.322 1902.22 967.051C1905.74 1016.65 1877.43 1041.45 1817.18 1041.45C1792.38 1041.45 1771.15 1034.35 1753.45 1020.16C1739.26 1006 1732.19 988.296 1732.19 967.038C1735.7 949.309 1742.83 935.171 1756.96 920.983C1774.68 910.386 1792.38 903.292 1817.18 903.292V903.292ZM2412.3 825.343H2284.78L2160.81 942.279V729.743H2043.91V1122.92H2160.81V963.51L2277.69 1122.92H2426.49L2274.17 952.888L2412.3 825.343V825.343ZM991.85 821.829C931.618 821.829 885.589 836.018 850.155 860.764C814.735 889.142 797.018 924.575 793.477 974.146C793.477 1069.77 860.777 1119.39 998.944 1122.92H1172.52V1041.46H1006.01C959.97 1037.89 928.09 1027.27 917.455 1006.03C903.292 984.768 903.292 963.523 913.915 942.292C928.09 917.494 956.416 903.305 991.85 903.305H1062.69L984.755 1006.03H1094.57L1172.51 906.859V821.842H991.85V821.829ZM1328.36 729.743H1207.93V1119.39H1427.53C1477.15 1119.39 1516.09 1105.21 1544.44 1076.87C1576.33 1052.07 1590.5 1016.65 1594.04 974.146C1594.04 889.129 1558.63 843.06 1487.77 828.923L1388.61 825.357L1335.46 903.305H1381.51C1452.37 903.305 1484.23 924.588 1484.23 974.159C1480.69 1016.66 1448.83 1041.46 1388.61 1041.46H1328.36V729.743ZM0 729.743V1119.39H120.437V818.275H233.793C258.578 825.344 276.295 839.532 272.767 867.845C272.767 885.549 265.673 899.738 251.51 903.279L138.154 913.888L262.132 1122.9H407.367L286.93 959.97C361.325 956.403 396.745 917.468 389.651 846.614C389.651 807.627 371.934 779.288 340.067 758.056C311.715 740.353 276.295 729.73 233.793 729.73H0V729.743V729.743Z" fill="#26231E"/>
<path fill-rule="evenodd" clip-rule="evenodd" d="M595.105 821.829C534.886 821.829 488.843 836.018 453.41 860.764C417.99 885.563 400.273 924.576 400.273 970.605C396.745 1069.77 464.045 1119.41 598.646 1119.41H775.761V1041.46H609.294C563.225 1037.89 531.358 1027.27 520.736 1006.03C506.56 984.768 506.56 963.524 517.195 942.292C531.358 917.494 559.684 903.305 595.118 903.305H665.959L588.036 1006.03H697.851L775.774 903.305V821.842H595.105V821.829V821.829ZM1225.64 106.274L1409.83 219.63L1703.83 109.828C1803.04 77.9483 1930.56 42.5149 2082.87 0C1707.4 31.8927 1424.02 63.7594 1225.64 106.274ZM1083.96 226.724L921.009 184.21C828.911 209.021 740.353 247.969 658.89 297.578C577.401 347.149 513.655 403.853 471.14 464.071H747.448C768.705 432.179 804.126 396.745 850.168 361.325C917.455 304.66 995.404 262.145 1083.96 226.724ZM1278.79 294.012L1140.64 247.956C1108.75 262.145 1069.8 279.849 1023.73 311.715C959.97 354.23 903.292 407.367 853.709 464.071H1112.29C1147.71 407.367 1204.39 350.702 1278.79 294.012V294.012ZM963.524 0H410.921L963.511 148.789C1207.93 223.158 1434.62 308.201 1643.66 396.745L963.524 0V0Z" fill="#26231E"/>
</svg>
