<svg width="2427" height="1268" viewBox="0 0 2427 1268" fill="none" xmlns="http://www.w3.org/2000/svg">
<path fill-rule="evenodd" clip-rule="evenodd" d="M406.807 776.215C387.508 776.215 372.398 789.716 372.398 809.417C372.398 829.132 387.586 842.555 406.807 842.555C426.015 842.555 441.216 829.041 441.216 809.417C441.216 789.716 426.093 776.215 406.807 776.215ZM406.807 833.061C393.046 833.061 382.839 823.01 382.839 809.417C382.839 795.838 392.968 785.709 406.807 785.709C420.477 785.709 430.762 795.994 430.762 809.417C430.762 822.763 420.387 833.061 406.807 833.061ZM741.622 660.084H574.117L593.157 368.938L484.379 660.084H328.833L575.635 2.01074H741.142L722.037 297.151L832.877 2.01074H988.436L741.622 660.084ZM761.829 660.084L1008.62 2.01074H1164.16L917.375 660.084H761.829Z" fill="#26231E"/>
<path fill-rule="evenodd" clip-rule="evenodd" d="M310.896 433.255C93.5355 688.513 -111.503 1028.15 69.6063 1184.55C245.1 1336.12 464.458 1246.38 614.025 1186.55C763.592 1126.72 2416.76 408.82 2416.76 408.82C2432.71 400.843 2429.73 390.869 2409.78 395.85C2401.74 397.86 610.043 883.422 610.043 883.422C382.683 947.246 123.444 808.146 310.896 433.255V433.255Z" fill="#26231E"/>
<path fill-rule="evenodd" clip-rule="evenodd" d="M412.67 811.752C417.494 811.518 421.269 809.028 421.269 802.349C421.269 793.737 415.64 791.571 406.237 791.571H392.722V827.276H401.736V812.076H403.254L411.463 827.276H421.826L412.67 811.752V811.752ZM406.885 805.967H401.749V797.679H406.081C408.74 797.679 411.788 797.991 411.788 801.454C411.788 805.163 410.024 805.967 406.885 805.967ZM1970.42 0C1951.12 0 1936.01 13.5145 1936.01 33.2026C1936.01 52.9036 1951.21 66.3274 1970.42 66.3274C1989.62 66.3274 2004.82 52.8128 2004.82 33.2026C2004.84 13.5145 1989.73 0 1970.42 0ZM1970.42 56.8594C1956.66 56.8594 1946.45 46.8079 1946.45 33.2156C1946.45 19.6362 1956.58 9.50681 1970.42 9.50681C1984.09 9.50681 1994.38 19.7919 1994.38 33.2156C1994.38 46.5615 1984.01 56.8594 1970.42 56.8594Z" fill="#26231E"/>
<path fill-rule="evenodd" clip-rule="evenodd" d="M1976.29 35.5376C1981.12 35.3041 1984.9 32.8139 1984.9 26.1345C1984.9 17.5226 1979.26 15.3566 1969.87 15.3566H1956.36V51.0494H1965.36V35.8618H1966.89L1975.09 51.0494H1985.46L1976.29 35.5376ZM1970.49 29.7531H1965.36V21.4654H1969.7C1972.35 21.4654 1975.41 21.7896 1975.41 25.2526C1975.41 28.9489 1973.63 29.7531 1970.49 29.7531V29.7531ZM1867.93 111.696L1909.73 2.01074H1435.11L1272.15 199.437L1347.39 2.01074H1189.84L945.026 660.084H1100.57L1205.1 384.891L1212.26 660.084L1689.53 659.046L1734.96 532.461H1553.5L1613.12 372.933H1762.68L1808.7 250.291H1659.14L1710.41 111.696H1867.93V111.696ZM1366.57 616.207L1356.6 273.222L1591.78 15.0064L1366.57 616.207V616.207Z" fill="#26231E"/>
</svg>
