<svg width="2500" height="812" viewBox="0 0 2500 812" fill="none" xmlns="http://www.w3.org/2000/svg">
<g clip-path="url(#clip0)">
<path d="M252.257 575.825C205.964 575.825 183.734 540.224 195.307 499.017C219.317 413.656 373.525 287.141 478.6 287.141C555.318 287.141 549.423 355.699 504.514 414.213L479.679 441.672C390.597 529.118 308.003 575.825 252.257 575.825V575.825ZM627.884 0.145752C493.768 0.199665 346.029 82.2547 253.317 159.979L260.632 170.582C404.56 69.6751 604.342 4.02745 659.423 102.472C688.5 154.426 639.116 259.286 569.605 342.203C586.282 305.579 575.284 235.295 478.367 235.295C317.186 235.277 0 448.771 0 667.207C0 754.743 60.6876 811.854 160.66 811.854C428.336 811.854 791.383 373.077 791.383 152.7C791.365 74.8686 746.582 0.145752 627.884 0.145752ZM972.476 575.825C956.931 575.825 943.956 570.344 935.851 560.478C927.387 550.054 924.871 535.336 928.896 520.079C937.756 486.995 973.392 461.099 1010 461.099H1096.12L1065.39 575.843L972.476 575.825ZM1220.11 231.79C1195.44 201.491 1155.6 187.959 1127.03 187.959H970.463L943.884 287.069H1091.51L1105.64 288.56C1105.8 288.56 1119.24 290.124 1126.67 300.205C1132.74 308.598 1133.6 321.124 1129.27 337.495L1122.28 363.553H1029.28C949.204 363.553 837.604 420.97 812.751 513.753C800.369 560.028 811.205 600.103 835.25 629.558C859.116 658.778 904.097 674.862 952.726 674.862H1038.86L1038.82 674.898H1148.34L1199.68 483.113L1237.49 342.131C1252.34 286.763 1236.25 251.54 1220.11 231.79V231.79ZM2295.42 187.959C2253.08 187.959 2213.76 200.485 2181.72 224.225C2149.41 248.162 2131.58 276.951 2120.96 316.595C2097.94 402.532 2165.44 444.008 2219.76 473.391C2258.67 494.506 2292.29 512.693 2285.05 539.649C2279.87 559.004 2271.45 575.915 2223.55 575.915H2077.38L2050.84 675.042H2212.61C2255.99 675.042 2296.05 665.985 2328.31 641.221C2360.64 616.385 2378.84 581.737 2390.16 539.488C2400.98 499.251 2393.63 460.847 2367.79 432.148C2346.24 408.12 2315.17 391.39 2287.84 376.618C2252.81 357.748 2219.78 339.957 2225.57 318.374C2229.05 305.363 2242.06 287.141 2270.33 287.141H2412.48L2439.06 188.031H2295.38V187.959H2295.42ZM1447.07 187.959C1404.73 187.959 1365.39 200.485 1333.37 224.225C1301.06 248.162 1283.25 276.951 1272.55 316.595C1249.53 402.532 1317.1 444.008 1371.38 473.391C1410.3 494.506 1443.94 512.693 1436.7 539.649C1431.51 559.004 1423.08 575.915 1375.17 575.915H1229.05L1202.47 675.042H1364.26C1407.68 675.042 1447.73 665.985 1479.96 641.221C1512.3 616.385 1530.51 581.737 1541.81 539.488C1552.63 499.251 1545.26 460.847 1519.47 432.148C1497.94 408.12 1466.84 391.39 1439.45 376.618C1404.46 357.748 1371.43 339.957 1377.23 318.374C1380.7 305.363 1393.73 287.141 1421.95 287.141H1564.06L1590.66 188.031H1447.05V187.959H1447.07ZM1667.84 187.959L1540.95 674.952H1648.14L1774.97 187.959H1667.84ZM2060.22 187.959C1871.49 188.642 1772.74 314.348 1741.34 431.447C1704.16 570.308 1778.07 674.97 1913.25 674.97H2003.86L2030.4 575.843H1939.85C1889.24 575.843 1819.66 536.001 1847.71 431.447C1869.98 348.313 1950.97 287.069 2039.95 287.069H2097.43L2124.01 187.959H2060.22V187.959ZM2431.57 652.686H2440.93V631.624H2448.39C2453.4 631.624 2456.91 632.163 2458.83 633.314C2462.21 635.308 2463.93 639.424 2463.93 645.606V649.865L2464.09 651.572C2464.17 651.824 2464.18 652.003 2464.26 652.201L2464.38 652.686H2473.21L2472.88 652.039C2472.58 651.141 2472.42 650.201 2472.41 649.254C2472.32 647.926 2472.27 646.595 2472.27 645.264V641.347C2472.17 638.355 2471.16 635.466 2469.38 633.062C2467.44 630.223 2464.35 628.479 2460.14 627.796C2463.43 627.293 2466.04 626.485 2467.9 625.191C2471.41 622.926 2473.13 619.458 2473.12 614.642C2473.13 607.939 2470.38 603.428 2464.87 601.11C2461.76 599.852 2456.91 599.241 2450.26 599.241H2431.57V652.686V652.686ZM2458.42 623.879C2456.47 624.652 2453.47 625.065 2449.48 625.065H2440.95V605.71H2448.96C2454.19 605.71 2458 606.339 2460.37 607.669C2462.76 608.999 2463.95 611.605 2463.95 615.504C2463.95 619.62 2462.1 622.405 2458.42 623.879V623.879ZM2485.73 591.747C2481.23 587.164 2475.84 583.545 2469.89 581.107C2463.94 578.67 2457.56 577.466 2451.14 577.568C2437.78 577.568 2426.3 582.312 2416.81 591.747C2412.22 596.197 2408.59 601.54 2406.15 607.446C2403.7 613.353 2402.5 619.698 2402.6 626.089C2402.6 639.639 2407.31 651.177 2416.72 660.665C2426.18 670.19 2437.68 674.97 2451.17 674.97C2464.67 674.97 2476.19 670.19 2485.7 660.665C2495.22 651.123 2500 639.603 2500 626.089C2500 612.665 2495.24 601.2 2485.73 591.747V591.747ZM2480.84 596.473C2489.04 604.65 2493.12 614.534 2493.12 626.071C2493.12 637.752 2489.04 647.69 2480.84 655.921C2472.74 664.152 2462.84 668.285 2451.21 668.285C2439.58 668.285 2429.72 664.17 2421.52 655.921C2417.59 652.023 2414.48 647.369 2412.39 642.239C2410.31 637.109 2409.28 631.609 2409.37 626.071C2409.37 614.498 2413.47 604.65 2421.58 596.473C2425.4 592.501 2430 589.356 2435.09 587.233C2440.19 585.109 2445.66 584.052 2451.17 584.127C2456.7 584.045 2462.19 585.098 2467.29 587.222C2472.39 589.345 2477.01 592.494 2480.84 596.473V596.473Z" fill="#26231E"/>
</g>
<defs>
<clipPath id="clip0">
<rect width="2500" height="812" fill="white"/>
</clipPath>
</defs>
</svg>
